<?xml version="1.0" standalone="no"?>
<!DOCTYPE svg PUBLIC "-//W3C//DTD SVG 20010904//EN"
 "http://www.w3.org/TR/2001/REC-SVG-20010904/DTD/svg10.dtd">
<svg version="1.0" xmlns="http://www.w3.org/2000/svg"
 width="360.000000pt" height="360.000000pt" viewBox="0 0 360.000000 360.000000"
 preserveAspectRatio="xMidYMid meet">
<metadata>
Created by potrace 1.11, written by Peter Selinger 2001-2013
</metadata>
<g transform="translate(0.000000,360.000000) scale(0.100000,-0.100000)"
fill="#000000" stroke="none">
<path d="M1675 3454 c-560 -58 -1043 -361 -1303 -817 -126 -220 -202 -460
-224 -703 -32 -355 68 -738 275 -1052 256 -388 680 -654 1146 -718 231 -32
294 -30 553 17 264 48 551 188 760 372 159 140 277 288 372 467 288 547 260
1171 -76 1692 -97 150 -291 350 -434 446 -94 64 -329 181 -434 216 -175 58
-476 96 -635 80z m-303 -1002 c125 -50 213 -142 242 -252 8 -31 15 -44 15 -30
0 14 -10 52 -24 84 -13 33 -22 62 -20 65 9 8 57 -43 95 -101 119 -183 80 -393
-97 -527 l-51 -38 71 -99 c158 -223 287 -413 287 -423 0 -8 -58 -11 -181 -11
l-181 0 -49 38 c-26 20 -48 41 -49 46 0 5 -6 14 -14 20 -7 6 -66 90 -131 186
-124 183 -141 207 -130 178 6 -16 0 -18 -51 -18 l-59 0 0 -222 0 -223 -131 -3
-131 -3 -51 42 -52 41 0 640 0 639 318 -3 c302 -3 320 -5 374 -26z m1203 5
c100 -29 184 -77 255 -147 37 -36 74 -76 84 -90 16 -24 16 -24 5 -1 -6 13 -29
44 -52 68 -48 53 -42 66 13 28 104 -72 193 -208 231 -352 27 -100 29 -251 4
-343 -59 -227 -245 -414 -470 -476 -47 -13 -122 -18 -348 -21 l-288 -5 -54 42
-54 42 -1 640 0 640 307 -4 c250 -4 319 -8 368 -21z"/>
<path d="M723 2375 c0 -36 3 -65 7 -65 15 0 19 14 9 27 -8 9 -8 17 0 26 7 10
7 17 0 24 -29 29 6 33 284 35 179 0 258 4 217 8 -36 4 -167 8 -291 9 l-226 1
0 -65z"/>
<path d="M1334 2402 c1 -16 -23 -17 -284 -22 l-285 -5 335 -2 c340 -2 347 -2
266 32 -31 13 -34 13 -32 -3z"/>
<path d="M1442 2354 c3 -18 -10 -19 -342 -24 l-345 -5 373 -3 c365 -2 372 -2
372 -22 0 -20 -7 -20 -378 -20 -271 0 -381 3 -389 11 -9 9 -12 7 -11 -7 2 -17
9 -19 75 -16 69 4 73 3 73 -17 0 -19 -6 -21 -63 -21 -35 0 -68 5 -74 11 -9 9
-12 7 -11 -7 2 -17 9 -19 75 -16 68 4 73 3 73 -16 0 -18 -7 -21 -47 -25 l-48
-3 48 -2 c34 -2 47 -6 47 -17 0 -11 -11 -15 -39 -15 -22 0 -43 -4 -46 -10 -4
-6 12 -10 39 -10 39 0 46 -3 46 -20 0 -16 -8 -20 -57 -23 l-58 -3 58 -2 c50
-2 58 -5 55 -19 -2 -14 -17 -19 -58 -24 l-55 -6 58 -1 c50 -2 57 -4 57 -22 0
-19 -5 -21 -67 -18 l-67 3 -2 38 c0 21 3 40 8 43 4 3 6 10 3 15 -16 26 -22 -1
-22 -103 l0 -113 373 3 c370 3 374 2 374 -18 0 -20 -5 -20 -352 -21 -207 0
-345 -4 -333 -9 11 -5 154 -9 319 -9 261 -1 297 -3 292 -16 -8 -21 0 -19 48
15 51 34 109 117 125 178 17 61 15 164 -3 220 -19 56 -47 98 -94 137 -29 24
-33 25 -30 9z m-159 -98 c39 -12 45 -12 40 1 -4 11 13 13 103 11 89 -2 109 -6
109 -18 0 -12 -19 -16 -90 -20 -86 -5 -89 -6 -73 -22 15 -15 18 -16 18 -3 0
13 14 15 83 13 65 -2 82 -6 82 -18 0 -12 -17 -16 -78 -18 -76 -3 -78 -4 -70
-25 4 -12 8 -48 8 -80 l0 -57 73 0 c65 0 72 -2 72 -20 0 -18 -7 -20 -70 -20
-55 0 -72 3 -77 16 -5 13 -7 13 -14 2 -16 -24 -9 -27 69 -30 60 -2 77 -6 77
-18 0 -12 -17 -16 -82 -18 -73 -2 -83 -1 -83 14 0 15 -2 15 -21 -2 -21 -19
-21 -19 67 -24 70 -4 89 -8 89 -20 0 -12 -19 -16 -102 -18 -88 -2 -103 0 -103
13 0 13 -3 14 -22 3 -17 -9 -77 -13 -213 -13 l-190 0 -3 193 -2 192 178 0
c123 0 193 -4 225 -14z m287 -101 c0 -12 -15 -15 -75 -15 -60 0 -75 3 -75 15
0 12 15 15 75 15 60 0 75 -3 75 -15z m0 -55 c0 -18 -7 -20 -70 -20 -63 0 -70
2 -70 20 0 18 7 20 70 20 63 0 70 -2 70 -20z m0 -50 c0 -18 -7 -20 -70 -20
-63 0 -70 2 -70 20 0 18 7 20 70 20 63 0 70 -2 70 -20z m-700 -100 c0 -18 -7
-20 -64 -20 -36 0 -68 5 -71 10 -13 21 8 30 71 30 57 0 64 -2 64 -20z m-2 -47
c-3 -14 -15 -19 -62 -21 -32 -2 -63 1 -69 7 -19 19 6 31 69 31 57 0 65 -2 62
-17z"/>
<path d="M931 2214 c0 -11 3 -14 6 -6 3 7 2 16 -1 19 -3 4 -6 -2 -5 -13z"/>
<path d="M1213 2213 c9 -2 25 -2 35 0 9 3 1 5 -18 5 -19 0 -27 -2 -17 -5z"/>
<path d="M1299 2192 c19 -9 41 -27 49 -39 l14 -23 -155 0 -156 0 -3 -100 -3
-100 100 0 c163 1 225 44 225 159 0 47 -4 57 -34 87 -19 19 -42 34 -52 34 -13
0 -7 -6 15 -18z"/>
<path d="M723 2181 c1 -11 6 -17 14 -14 10 4 11 9 2 19 -15 19 -18 18 -16 -5z"/>
<path d="M723 2124 c0 -23 1 -24 9 -10 7 12 7 21 0 28 -6 6 -9 0 -9 -18z"/>
<path d="M1633 2095 c0 -27 2 -38 4 -22 2 15 2 37 0 50 -2 12 -4 0 -4 -28z"/>
<path d="M1613 1982 c-19 -84 -75 -160 -163 -225 -14 -10 -5 -7 20 6 25 14 63
47 85 74 40 48 80 146 73 179 -2 9 -8 -7 -15 -34z"/>
<path d="M723 1826 c0 -18 3 -24 9 -18 7 7 7 16 0 28 -8 14 -9 13 -9 -10z"/>
<path d="M723 1744 c-1 -26 3 -41 9 -38 5 4 7 16 4 27 -3 12 -1 26 5 33 6 8 5
13 -4 17 -10 4 -14 -6 -14 -39z"/>
<path d="M1029 1773 c162 -2 269 -7 277 -14 8 -7 22 -5 46 5 30 13 3 14 -277
13 l-310 -2 264 -2z"/>
<path d="M1025 1730 c-154 -3 -252 -6 -217 -8 56 -2 62 -4 62 -23 0 -20 -4
-21 -73 -17 -66 3 -73 1 -75 -16 -1 -14 2 -16 11 -7 6 6 39 11 74 11 56 0 63
-2 63 -20 0 -17 -7 -20 -57 -22 l-58 -1 55 -6 c41 -5 56 -10 58 -23 3 -15 -5
-18 -55 -20 l-58 -1 55 -6 c41 -5 56 -10 58 -23 3 -15 -5 -18 -50 -19 -39 0
-48 -3 -33 -9 11 -5 35 -9 53 -9 47 -1 44 -31 -3 -31 -19 0 -35 -4 -35 -10 0
-5 16 -10 35 -10 24 0 35 -5 35 -15 0 -11 -13 -15 -47 -17 l-48 -1 45 -6 c31
-4 46 -11 48 -23 3 -14 -7 -18 -60 -21 l-63 -3 63 -2 c54 -2 62 -4 62 -22 0
-16 -8 -20 -57 -23 l-58 -3 58 -2 c50 -2 57 -5 57 -22 0 -18 -7 -20 -64 -20
-66 0 -86 10 -67 34 6 7 8 16 4 19 -13 14 -19 6 -21 -28 l-3 -35 81 0 80 0 0
225 0 225 124 0 124 0 93 -137 c52 -76 120 -177 153 -225 l60 -88 99 0 c88 0
98 2 87 15 -9 11 -16 13 -24 5 -5 -5 -45 -10 -88 -10 -72 0 -78 2 -78 21 0 19
5 20 84 17 l84 -3 -31 43 c-17 24 -33 38 -37 32 -4 -7 -38 -10 -86 -8 -62 2
-79 6 -79 18 0 12 17 16 77 18 l78 3 -27 40 c-15 23 -29 35 -33 29 -9 -15
-162 -9 -167 7 -3 9 19 13 80 15 l84 3 -45 69 c-25 38 -48 64 -50 58 -2 -8
-33 -12 -89 -12 -75 0 -84 2 -81 18 3 14 15 17 84 17 l81 0 -25 38 c-13 20
-25 36 -26 35 0 -2 -127 -5 -281 -8z m293 -32 c3 -16 -6 -18 -77 -18 -44 0
-83 5 -86 10 -14 23 9 31 83 28 64 -3 77 -6 80 -20z m70 -100 c3 -16 -6 -18
-77 -18 -48 0 -83 4 -87 11 -12 20 20 29 91 27 57 -3 70 -6 73 -20z m31 -41
c18 -22 2 -27 -81 -27 -71 0 -78 2 -78 20 0 18 7 20 74 20 49 0 77 -4 85 -13z
m71 -112 c0 -12 -15 -15 -79 -15 -74 0 -100 7 -84 24 3 3 42 6 85 6 63 0 78
-3 78 -15z m68 -97 c3 -16 -6 -18 -77 -18 -44 0 -83 5 -86 10 -14 23 9 31 83
28 64 -3 77 -6 80 -20z"/>
<path d="M1383 1722 c-9 -6 -5 -16 13 -37 24 -28 24 -28 9 -3 -9 15 -14 32
-10 38 7 12 4 12 -12 2z"/>
<path d="M1100 1666 c0 -2 8 -10 18 -17 15 -13 16 -12 3 4 -13 16 -21 21 -21
13z"/>
<path d="M723 1600 c0 -38 6 -48 20 -33 4 3 2 12 -4 20 -8 9 -8 17 0 26 6 8 8
17 4 20 -14 15 -20 5 -20 -33z"/>
<path d="M1510 1515 c17 -25 33 -45 36 -45 3 0 -9 20 -26 45 -17 25 -33 45
-36 45 -3 0 9 -20 26 -45z"/>
<path d="M723 1525 c0 -21 2 -23 13 -14 11 9 11 15 3 25 -15 19 -16 18 -16
-11z"/>
<path d="M723 1468 c-2 -16 1 -18 10 -9 7 7 8 14 1 21 -6 6 -10 2 -11 -12z"/>
<path d="M1615 1365 c37 -55 75 -107 83 -115 8 -8 -15 30 -53 85 -37 55 -75
107 -83 115 -8 8 15 -30 53 -85z"/>
<path d="M723 1418 c-2 -16 1 -18 10 -9 7 7 8 14 1 21 -6 6 -10 2 -11 -12z"/>
<path d="M723 1370 c-1 -11 2 -18 8 -15 11 7 12 35 1 35 -4 0 -8 -9 -9 -20z"/>
<path d="M1940 1855 l0 -585 278 2 277 3 -270 5 -270 5 -1 138 c0 76 4 141 9
144 5 3 3 9 -4 14 -11 7 -12 12 -2 28 9 14 9 21 1 23 -7 3 -9 12 -5 22 10 25
130 20 135 -6 3 -15 -5 -18 -55 -20 l-58 -1 55 -6 c41 -5 56 -10 58 -23 3 -15
-5 -18 -55 -20 l-58 -1 55 -6 c41 -5 56 -10 58 -23 3 -15 -5 -18 -50 -18 -38
0 -49 -3 -38 -10 8 -5 32 -10 53 -10 26 0 37 -4 37 -15 0 -10 -10 -15 -34 -15
-19 0 -38 -4 -41 -10 -4 -6 10 -10 34 -10 29 0 41 -4 41 -15 0 -10 -16 -15
-57 -18 -32 -2 118 -4 333 -5 356 -2 392 -4 398 -19 6 -14 13 -10 46 22 22 22
40 43 40 47 0 4 -47 8 -105 8 -87 0 -105 3 -105 15 0 12 19 15 109 15 78 0
111 -4 113 -12 3 -8 9 -4 17 10 l12 22 -96 0 c-86 0 -96 2 -93 18 5 25 167 31
185 7 10 -15 12 -15 21 2 7 13 42 118 42 127 0 1 -36 0 -80 -2 -75 -3 -80 -2
-80 17 0 19 6 21 75 21 52 0 75 -4 75 -12 0 -9 3 -9 11 -1 19 19 23 200 5 283
-21 103 -83 223 -144 284 -36 35 -50 43 -49 30 2 -18 -14 -19 -401 -22 -363
-2 -403 -1 -409 14 -3 9 0 20 8 25 10 6 10 9 2 9 -7 0 -13 9 -13 20 0 11 5 20
11 20 8 0 8 4 -1 15 -26 32 0 35 273 37 178 1 248 4 202 8 -38 4 -166 8 -282
9 l-213 1 0 -585z m148 398 c-3 -15 -14 -18 -68 -18 -54 0 -65 3 -68 18 -3 15
5 17 68 17 63 0 71 -2 68 -17z m382 3 c55 -12 66 -12 75 1 15 21 270 15 270
-7 0 -12 -23 -16 -125 -20 -69 -3 -119 -7 -112 -8 8 -1 27 -11 42 -22 l28 -20
-5 20 c-5 20 -2 21 103 18 89 -2 109 -6 109 -18 0 -12 -19 -16 -98 -18 l-99
-3 37 -41 c21 -22 51 -70 68 -107 57 -120 48 -292 -20 -408 -28 -48 -100 -115
-153 -144 l-35 -18 133 -1 c102 0 133 -3 130 -12 -3 -10 -43 -14 -141 -16
-115 -2 -137 0 -137 12 0 13 -5 13 -32 3 -21 -7 -101 -12 -218 -12 l-185 0 -3
418 -2 417 152 0 c90 0 180 -6 218 -14z m-382 -53 c-2 -13 -16 -20 -48 -24
l-45 -6 48 -1 c34 -2 47 -6 47 -17 0 -10 -10 -15 -27 -15 -16 0 -39 -4 -53 -8
-21 -6 -16 -8 25 -12 37 -4 51 -9 53 -22 3 -16 -5 -18 -67 -18 -64 0 -71 2
-71 20 0 11 5 20 11 20 8 0 8 4 2 13 -6 6 -11 29 -11 50 l-1 37 70 0 c62 0 70
-2 67 -17z m800 -50 c3 -10 -20 -13 -92 -13 -80 0 -96 3 -96 15 0 13 15 15 92
13 62 -2 93 -7 96 -15z m22 -53 c0 -20 -5 -21 -82 -18 -70 3 -83 6 -86 21 -3
15 6 17 82 17 80 0 86 -1 86 -20z m-822 -47 c-2 -14 -17 -19 -58 -24 l-55 -6
58 -1 c50 -2 58 -5 55 -19 -3 -15 -14 -18 -68 -18 l-65 0 -2 43 -3 42 71 0
c62 0 70 -2 67 -17z m840 0 c-3 -15 -15 -18 -78 -18 -63 0 -75 3 -78 18 -3 15
6 17 78 17 72 0 81 -2 78 -17z m12 -53 c0 -18 -7 -20 -75 -20 -68 0 -75 2 -75
20 0 18 7 20 75 20 68 0 75 -2 75 -20z m-852 -52 c3 -16 -5 -18 -67 -18 -53 0
-71 3 -71 13 0 24 13 28 74 25 49 -2 61 -7 64 -20z m862 2 c0 -18 -7 -20 -69
-20 -39 0 -73 5 -76 10 -13 21 9 30 76 30 62 0 69 -2 69 -20z m-862 -52 c3
-15 -5 -18 -55 -20 l-58 -1 55 -6 c40 -4 55 -10 55 -21 0 -10 -14 -17 -45 -20
-33 -4 -40 -7 -27 -12 10 -5 32 -8 48 -8 19 0 29 -5 29 -15 0 -11 -13 -15 -52
-17 l-53 -1 50 -6 c37 -4 51 -11 53 -23 3 -16 -5 -18 -67 -18 -72 0 -87 10
-59 38 8 8 8 12 1 12 -14 0 -13 83 1 92 8 6 7 8 -1 8 -7 0 -13 9 -13 20 0 19
5 21 67 18 55 -2 68 -6 71 -20z m870 0 c3 -16 -6 -18 -72 -18 -57 0 -76 3 -76
13 0 24 13 28 79 25 53 -2 66 -6 69 -20z m2 -48 c0 -18 -7 -20 -69 -20 -39 0
-73 5 -76 10 -13 21 9 30 76 30 62 0 69 -2 69 -20z m0 -55 c0 -12 -15 -15 -75
-15 -60 0 -75 3 -75 15 0 12 15 15 75 15 60 0 75 -3 75 -15z m-10 -45 c0 -18
-7 -20 -69 -20 -39 0 -73 5 -76 10 -13 21 9 30 76 30 62 0 69 -2 69 -20z
m-862 -52 c3 -16 -5 -18 -67 -18 -53 0 -71 3 -71 13 0 24 13 28 74 25 49 -2
61 -7 64 -20z m842 -48 c0 -18 -7 -20 -80 -20 -60 0 -80 3 -80 13 0 23 11 27
87 27 66 0 73 -2 73 -20z m-22 -52 c3 -16 -6 -18 -82 -18 -65 0 -86 3 -86 13
0 24 13 28 89 25 63 -3 76 -6 79 -20z"/>
<path d="M2150 1848 l5 -373 3 367 2 367 143 4 142 3 -150 2 -150 2 5 -372z"/>
<path d="M2468 2203 c7 -3 16 -2 19 1 4 3 -2 6 -13 5 -11 0 -14 -3 -6 -6z"/>
<path d="M2625 2128 c28 -26 48 -49 45 -52 -3 -3 -26 2 -50 11 -31 11 -93 17
-202 21 l-158 4 0 -316 0 -316 94 0 c166 0 274 49 342 156 70 109 79 269 23
389 -23 48 -83 116 -121 136 -13 7 0 -8 27 -33z"/>
<path d="M2544 2401 c1 -14 -28 -17 -284 -21 l-285 -5 350 -2 c310 -2 346 -1
317 12 -18 8 -47 18 -66 23 -28 8 -33 7 -32 -7z"/>
<path d="M2688 2348 c-4 -10 -88 -14 -359 -18 l-354 -6 390 -2 c389 -2 390 -1
365 18 -29 23 -37 24 -42 8z"/>
<path d="M2947 2155 c9 -19 18 -33 21 -31 4 5 -26 66 -33 66 -3 0 3 -16 12
-35z"/>
<path d="M2972 2105 c0 -5 6 -26 13 -45 7 -19 14 -28 14 -20 0 8 -6 29 -14 45
-7 17 -13 26 -13 20z"/>
<path d="M3002 2000 c0 -14 2 -19 5 -12 2 6 2 18 0 25 -3 6 -5 1 -5 -13z"/>
<path d="M3013 1925 c0 -22 2 -30 4 -17 2 12 2 30 0 40 -3 9 -5 -1 -4 -23z"/>
<path d="M3013 1775 c0 -22 2 -30 4 -17 2 12 2 30 0 40 -3 9 -5 -1 -4 -23z"/>
<path d="M3001 1715 c-1 -11 -4 -31 -6 -45 l-6 -25 11 25 c6 13 9 33 7 45 -4
19 -4 19 -6 0z"/>
<path d="M2961 1579 c-6 -17 -25 -55 -42 -83 -18 -28 -25 -45 -17 -38 19 15
83 140 76 148 -3 3 -11 -9 -17 -27z"/>
<path d="M2849 1404 c-45 -47 -127 -100 -197 -130 -31 -13 -51 -23 -43 -24 35
-1 166 75 224 130 34 33 60 59 56 60 -3 0 -21 -16 -40 -36z"/>
<path d="M2325 1373 c290 -3 352 -6 361 -17 9 -13 15 -12 40 5 29 19 28 19
-361 17 l-390 -3 350 -2z"/>
<path d="M2255 1323 c246 -3 281 -5 292 -20 11 -15 17 -14 65 5 l53 21 -345
-2 -345 -2 280 -2z"/>
<path d="M2555 1244 c-6 -2 -37 -8 -70 -14 l-60 -9 61 4 c53 4 134 24 94 24
-8 -1 -20 -3 -25 -5z"/>
</g>
</svg>
